<?xml version="1.0" standalone="no"?>
<!DOCTYPE svg PUBLIC "-//W3C//DTD SVG 20010904//EN"
 "http://www.w3.org/TR/2001/REC-SVG-20010904/DTD/svg10.dtd">
<svg version="1.0" xmlns="http://www.w3.org/2000/svg"
 width="225.000000pt" height="225.000000pt" viewBox="0 0 225.000000 225.000000"
 preserveAspectRatio="xMidYMid meet">

<g transform="translate(0.000000,225.000000) scale(0.100000,-0.100000)"
fill="#000000" stroke="none">
<path d="M1030 2185 c-8 -2 -49 -9 -90 -15 -200 -33 -419 -153 -564 -311 -341
-369 -380 -927 -95 -1352 55 -80 187 -212 268 -267 91 -61 217 -117 329 -147
84 -22 118 -26 247 -26 130 0 163 4 249 27 369 97 652 383 753 761 24 90 27
117 27 270 0 153 -3 180 -27 270 -51 189 -146 356 -281 491 -188 188 -421 290
-686 299 -63 2 -122 2 -130 0z m345 -85 c524 -143 839 -700 700 -1235 -43
-163 -125 -310 -243 -436 -153 -163 -405 -301 -450 -247 -6 8 -12 93 -14 203
-3 185 -4 193 -30 243 l-27 52 27 5 c146 29 243 75 303 143 126 144 144 443
35 587 -24 31 -25 36 -14 88 13 62 -3 187 -27 207 -25 21 -155 -24 -236 -81
-25 -17 -31 -18 -95 -4 -89 19 -281 19 -361 0 l-63 -15 -57 35 c-32 20 -89 45
-126 56 -61 19 -71 20 -84 7 -24 -24 -38 -137 -26 -204 10 -56 9 -59 -18 -98
-64 -87 -85 -235 -55 -378 40 -187 145 -288 348 -333 l77 -17 -25 -45 c-13
-25 -24 -55 -24 -65 0 -41 -124 -63 -193 -35 -29 13 -56 40 -129 131 -16 18
-43 41 -62 50 -38 18 -92 21 -101 6 -3 -5 19 -33 50 -62 39 -36 66 -73 90
-124 57 -119 128 -160 264 -152 l71 4 0 -98 c0 -87 -2 -98 -21 -111 -25 -18
-43 -14 -136 29 -198 90 -386 275 -479 473 -135 284 -136 584 -4 886 37 85
125 207 207 286 148 143 298 224 493 265 99 20 333 12 435 -16z"/>
</g>
</svg>
